<?xml version="1.0" encoding="utf-8"?>
<?xml-stylesheet type="text/xsl" href="rss1.xsl"?>
<rss version="2.0" xmlns:atom="http://www.w3.org/2005/Atom" xmlns:content="http://purl.org/rss/1.0/modules/content/" xmlns:dc="http://purl.org/dc/elements/1.1/" xmlns:media="http://search.yahoo.com/mrss/">
<channel>
 <title>Getty</title>
 <link>http://www.gettyimg.com/</link>
 <atom:link href="http://www.gettyimg.com/" rel="self" type="application/rss+xml" />

 
                <item>
                <title><![CDATA[【BLU-RAY】BLU-RAY - Queen - Somebody to Love 1080i Blu-Ray AVC PCM2.0]]></title>
                <link><![CDATA[https://sharemania.us/threads/queen-somebody-to-love-1080i-blu-ray-avc-pcm2-0.232553/]]></link>
                <description><![CDATA[<article>
<blockquote class="messageText SelectQuoteContainer ugc baseHtml">
<img src="https://queenphotos.files.wordpress.com/2013/11/1147571_222692167892244_1406087350_o.jpg" class="bbCodeImage LbImage" alt="[​IMG]" data-url="https://queenphotos.files.wordpress.com/2013/11/1147571_222692167892244_1406087350_o.jpg" style=""> <img src="https://i.postimg.cc/5yXwHz4P/00004-m2ts.jpg" class="bbCodeImage LbImage" alt="[​IMG]" data-url="https://i.postimg.cc/5yXwHz4P/00004-m2ts.jpg" style=""> <br>
<div class="ToggleTriggerAnchor bbCodeSpoilerContainer">
<button type="button" class="button bbCodeSpoilerButton ToggleTrigger Tooltip JsOnly" data-target="> .SpoilerTarget"><span>Spoiler: <span class="SpoilerTitle">Media Info</span></span></button>
<div class="SpoilerTarget bbCodeSpoilerText">General<br>
ID : 0 (0x0)<br>
Complete name : Queen - Somebody to Love 1080i Blu-Ray AVC PCM2.0.m2ts<br>
Format : BDAV<br>
Format/Info : Blu-ray Video<br>
File size : 917 MiB<br>
Duration : 4 min 56 s<br>
Overall bit rate mode : Variable<br>
Overall bit rate : 26.0 Mb/s<br>
Maximum Overall bit rate : 48.0 Mb/s<br>
Frame rate : 29.970 FPS<br>
<br>
Video<br>
ID : 4113 (0x1011)<br>
Menu ID : 1 (0x1)<br>
Format : AVC<br>
Format/Info : Advanced Video Codec<br>
Format profile : High@L4.1<br>
Format settings : CABAC / 3 Ref Frames<br>
Format settings, CABAC : Yes<br>
Format settings, Reference frames : 3 frames<br>
Codec ID : 27<br>
Duration : 4 min 56 s<br>
Bit rate mode : Variable<br>
Bit rate : 23.0 Mb/s<br>
Maximum bit rate : 40.0 Mb/s<br>
Width : 1 920 pixels<br>
Height : 1 080 pixels<br>
Display aspect ratio : 16:9<br>
Frame rate : 29.970 (30000/1001) FPS<br>
Color space : YUV<br>
Chroma subsampling : 4:2:0<br>
Bit depth : 8 bits<br>
Scan type : MBAFF<br>
Scan type, store method : Interleaved fields<br>
Scan order : Top Field First<br>
Bits/(Pixel*Frame) : 0.370<br>
Stream size : 825 MiB (90%)<br>
Writing library : x264 core 116 r2074 2641b9e<br>
Encoding settings : cabac=1 / ref=4 / deblock=1:0:0 / analyse=0x3:0x133 / me=umh / subme=10 / psy=1 / psy_rd=1.00:0.00 / mixed_ref=1 / me_range=24 / chroma_me=1 / trellis=2 / 8x8dct=1 / cqm=0 / deadzone=21,11 / fast_pskip=1 / chroma_qp_offset=-2 / threads=24 / sliced_threads=0 / slices=4 / nr=0 / decimate=1 / interlaced=tff / bluray_compat=1 / constrained_intra=0 / bframes=3 / b_pyramid=1 / b_adapt=2 / b_bias=0 / direct=3 / weightb=1 / open_gop=1 / weightp=0 / keyint=30 / keyint_min=3 / scenecut=40 / intra_refresh=0 / rc_lookahead=30 / rc=2pass / mbtree=1 / bitrate=23000 / ratetol=1.0 / qcomp=0.60 / qpmin=0 / qpmax=69 / qpstep=4 / cplxblur=20.0 / qblur=0.5 / vbv_maxrate=40000 / vbv_bufsize=30000 / nal_hrd=vbr / ip_ratio=1.40 / aq=1:1.00<br>
Color range : Limited<br>
Color primaries : BT.709<br>
Transfer characteristics : BT.709<br>
Matrix coefficients : BT.709<br>
<br>
Audio<br>
ID : 4352 (0x1100)<br>
Menu ID : 1 (0x1)<br>
Format : PCM<br>
Format settings : Big / Signed<br>
Muxing mode : Blu-ray<br>
Codec ID : 128<br>
Duration : 4 min 56 s<br>
Bit rate mode : Constant<br>
Bit rate : 1 536 kb/s<br>
Channel(s) : 2 channels<br>
Channel layout : L R<br>
Sampling rate : 48.0 kHz<br>
Bit depth : 16 bits<br>
Stream size : 54.2 MiB (6%)<br>
<br>
Text #1<br>
ID : 4608 (0x1200)<br>
Menu ID : 1 (0x1)<br>
Format : PGS<br>
Codec ID : 144<br>
<br>
Text #2<br>
ID : 4609 (0x1201)<br>
Menu ID : 1 (0x1)<br>
Format : PGS<br>
Codec ID : 144<br>
<br>
Text #3<br>
ID : 4610 (0x1202)<br>
Menu ID : 1 (0x1)<br>
Format : PGS<br>
Codec ID : 144<br>
<br>
Text #4<br>
ID : 4611 (0x1203)<br>
Menu ID : 1 (0x1)<br>
Format : PGS<br>
Codec ID : 144<br>
<br>
Text #5<br>
ID : 4612 (0x1204)<br>
Menu ID : 1 (0x1)<br>
Format : PGS<br>
Codec ID : 144<br>
<br>
Text #6<br>
ID : 4613 (0x1205)<br>
Menu ID : 1 (0x1)<br>
Format : PGS<br>
Codec ID : 144</div>
</div>Ripped by me <img src="styles/default/xenforo/smilies/big_smile-48.png" class="mceSmilie" alt=":)" title="Smile    :)"><br>
<div class="bbCodeBlock bbCodeVfcHH HiddenContent">
<div class="attribution type">Hidden Content:</div>
<blockquote>You must either reply or click 'Like' to see the hidden information contained here.</blockquote>
</div>
<div class="messageTextEndMarker">&nbsp;</div>
</blockquote>
</article>]]></description>
                <author><![CDATA[szymek04sawicki]]></author>
                </item>

                </channel></rss>